<mxfile host="app.diagrams.net" modified="2022-03-19T17:03:14.639Z" agent="5.0 (Windows NT 10.0; Win64; x64) AppleWebKit/537.36 (KHTML, like Gecko) Chrome/99.0.4844.74 Safari/537.36" etag="ZWatvZHGoirfD7SrhHzg" version="17.1.3" type="github">
  <diagram id="UT4bAuSWDc5qMOsycz4B" name="Page-1">
    <mxGraphModel dx="1038" dy="547" grid="1" gridSize="10" guides="1" tooltips="1" connect="1" arrows="1" fold="1" page="1" pageScale="1" pageWidth="850" pageHeight="1100" math="0" shadow="0">
      <root>
        <mxCell id="0" />
        <mxCell id="1" parent="0" />
        <UserObject label="https://azure.microsoft.com/en-us/free/" link="https://azure.microsoft.com/en-us/free/" id="kNjltLQnDKRAYEfKQLCP-1">
          <mxCell style="text;whiteSpace=wrap;html=1;" vertex="1" parent="1">
            <mxGeometry x="270" y="100" width="230" height="30" as="geometry" />
          </mxCell>
        </UserObject>
      </root>
    </mxGraphModel>
  </diagram>
</mxfile>
